/* XPM */
static char *_153a5fa707f4e76992279176150dbacFY4eFPYKBSdEz8g6[] = {
/* columns rows colors chars-per-pixel */
"18 18 15 1 ",
"  c None",
". c #3B1F0E",
"X c #232323",
"o c #343434",
"O c #492712",
"+ c #623418",
"@ c #7B411E",
"# c gray50",
"$ c #8E502C",
"% c #F6FF00",
"& c #EBD77E",
"* c #6CC7D6",
"= c #A2A2A2",
"- c #FFEA8D",
"; c #9CD9E4",
/* pixels */
"       XXXXXX     ",
" XXXXXXX====XXX   ",
" X------=oo=--X   ",
" X------====--X   ",
" X------####--X   ",
" X------####--X   ",
" X------------X   ",
" X------------X   ",
" X------------X   ",
" X&&&&&&&&&&&&X   ",
" XX++++++++++XX   ",
"  X@@@@@@@@@@X    ",
"  X@....@***@X    ",
"  X@OOOO@;;;@X    ",
"  X@O%OO@;;;@X    ",
"  X@OOOO@$$$@X    ",
"  X@OOOO@@@@@X    ",
"  X@    @@@@@X    "
};
