/* XPM */
static char *_2e69132cbd5475ac43cf30865791a7dVbeHpVCAT1iXX8Vv[] = {
/* columns rows colors chars-per-pixel */
"32 32 2 1 ",
"  c None",
". c #63AB3F",
/* pixels */
"                                ",
"                                ",
"  ...........................   ",
"  ...........................   ",
"  ...........................   ",
"  ...........................   ",
"  ...........................   ",
"  ...........................   ",
"  ...........................   ",
"  ...........................   ",
"  ...........................   ",
"  ...........................   ",
"  ...........................   ",
"  ...........................   ",
"  ...........................   ",
"  ...........................   ",
"  ...........................   ",
"  ...........................   ",
"  ...........................   ",
"  ...........................   ",
"  ...........................   ",
"  ...........................   ",
"  ...........................   ",
"  ...........................   ",
"  ...........................   ",
"  ...........................   ",
"  ...........................   ",
"  ...........................   ",
"  ...........................   ",
"                                ",
"                                ",
"                                "
};
