/* XPM */
static char *_3fb47ac99ae41f1992c917c984b16d7wr9j8jjJBrGD2yK4[] = {
/* columns rows colors chars-per-pixel */
"16 16 4 1 ",
"  c None",
". c #232323",
"X c #1E7B23",
"o c #319B36",
/* pixels */
"                ",
"                ",
"                ",
"     .....      ",
"     .ooo.      ",
"   ...ooo.      ",
"   .o.XXX.      ",
"   .XoXXX...    ",
"   .XXXXX.o.    ",
"   ...XXXoX.    ",
"     .XXXXX.    ",
"     .XXX...    ",
"     .XXX.      ",
"                ",
"                ",
"                "
};
